<?xml version="1.0" encoding="utf-8"?>
<!-- Generator: Adobe Illustrator 27.3.1, SVG Export Plug-In . SVG Version: 6.00 Build 0)  -->
<svg version="1.1" id="Layer_1" xmlns="http://www.w3.org/2000/svg" xmlns:xlink="http://www.w3.org/1999/xlink" x="0px" y="0px"
	 viewBox="0 0 362.5 64.2" style="enable-background:new 0 0 362.5 64.2;" xml:space="preserve">
<style type="text/css">
	.st0{fill:none;}
	.st1{enable-background:new    ;}
</style>
<rect x="-1.7" y="0.4" class="st0" width="95.9" height="17.4"/>
<g class="st1">
	<path d="M5.8,9.1C6.5,9.6,7,10.3,7.4,11l3.6,6.1h-0.8L6.7,11c-0.5-0.8-1.2-1.9-2.5-1.9H0.7v8H0.1V0.4h5.6c3.1,0,5.2,1.2,5.2,4.4
		C10.9,7.5,9.2,8.9,5.8,9.1z M5.7,1H0.7v7.5h4.9c2.5,0,4.5-0.9,4.5-3.7C10.2,1.8,8.1,1,5.7,1z"/>
	<path d="M26.7,17.1H16.3V0.4h10.4V1H17v7.1h8.5v0.6H17v7.8h9.7V17.1z"/>
	<path d="M41.9,1h-9.5v7.1h8.5v0.6h-8.5v8.4h-0.7V0.4h10.2V1z"/>
	<path d="M58.4,9.9c0,4.3-1.3,7.4-5.9,7.4s-5.9-3.3-5.9-7.4V0.4h0.7v9.6c0,3.4,0.9,6.7,5.3,6.7c4.4,0,5.3-3.3,5.3-6.7V0.4h0.7V9.9z"
		/>
	<path d="M75.3,8.7v8.4h-0.7v-3.4c-0.9,2.7-2.6,3.6-5,3.6c-4.9,0-6.5-4.3-6.5-8.6c0-4.3,1.8-8.6,6.6-8.6c2.2,0,3.5,0.8,4.9,2.4
		L74.1,3c-1.2-1.4-2.4-2.1-4.4-2.1c-4.8,0-6,4.2-6,7.9c0,3.6,1.2,7.9,5.9,7.9c4.1,0,5-3.7,5-7.3h-4.5V8.7H75.3z"/>
	<path d="M91.1,17.1H80.7V0.4h10.4V1h-9.7v7.1h8.5v0.6h-8.5v7.8h9.7V17.1z"/>
</g>
<g class="st1">
	<path d="M24.6,64.1h-3.8V48.6H3.9v15.5H0.1V30.6h3.8V45h16.9V30.6h3.8V64.1z"/>
	<path d="M62.3,64.1h-4.1l-3.6-9.6H40.2l-3.6,9.6h-4.1l12.9-33.5h4L62.3,64.1z M53.3,51.2l-5.9-15.6l-5.9,15.6H53.3z"/>
	<path d="M90.2,30.6L78.8,64.1h-3.9L63.6,30.6h4l9.3,27.9l9.3-27.9H90.2z"/>
	<path d="M112.6,48.9c0.9,0.7,1.7,1.8,2.4,2.8l7.6,12.4h-4.5l-7-11.8c-1-1.7-2-3.1-4.4-3.1h-4.5v14.9h-3.8V30.6h11.7
		c6.3,0,10.9,2.8,10.9,9.4C121.1,44.9,118.1,48.1,112.6,48.9z M110.1,34.3h-7.9v11.5h7.9c3.9,0,7.1-1.2,7.1-5.8
		C117.2,35.5,114,34.3,110.1,34.3z"/>
	<path d="M153.4,64.1h-21.8V30.6h21.8v3.7h-18V45h15.7v3.6h-15.7v11.8h18V64.1z"/>
	<path d="M207.6,64.1h-4.1l-3.6-9.6h-14.4l-3.6,9.6h-4.1l12.9-33.5h4L207.6,64.1z M198.6,51.2l-5.9-15.6l-5.9,15.6H198.6z"/>
	<path d="M239,64.1h-3.5l-16.2-26.1v26.1h-3.8V30.6h3.5l16.1,26.1V30.6h3.8V64.1z"/>
	<path d="M254.3,64.1h-3.8V30.6h3.8V64.1z"/>
	<path d="M294.5,64.1h-3.8v-24l-9.2,24h-2.9l-9.2-23.9v23.9h-3.8V30.6h3.8l10.7,27.8l10.8-27.8h3.7V64.1z"/>
	<path d="M332,64.1h-4.1l-3.6-9.6h-14.4l-3.6,9.6h-4.1l12.9-33.5h4L332,64.1z M323,51.2l-5.9-15.6l-5.9,15.6H323z"/>
	<path d="M359.7,64.1h-19.8V30.6h3.8v29.9h16V64.1z"/>
</g>
</svg>
